<svg xmlns="http://www.w3.org/2000/svg" viewBox="0 0 240 151" width="240" height="151">
<g transform="translate(0.00,0.00) scale(0.310861)"><g transform="translate(-8.002268,492.971922) scale(0.100000,-0.100000)" fill="#F9FAFB" stroke="none">
<path d="M4395 4208 c-363 -396 -661 -729 -663 -739 -3 -18 265 -396 291 -410
16 -9 647 -139 672 -139 23 0 1338 1429 1343 1458 3 20 -270 404 -296 414 -22
10 -647 138 -670 138 -10 0 -293 -302 -677 -722z m995 581 c140 -29 257 -54
258 -55 10 -7 -485 -534 -501 -534 -22 0 -18 5 171 211 113 123 123 137 118
166 -3 23 2 40 20 64 54 73 46 79 -176 124 l-124 25 -35 -33 c-52 -49 -82 -67
-112 -67 -21 0 -58 -36 -199 -190 -110 -121 -181 -190 -193 -190 -23 0 -29 -7
261 308 177 192 218 233 236 228 11 -2 136 -28 276 -57z m-104 -105 c95 -19
89 -15 69 -54 -9 -18 -15 -41 -12 -51 6 -21 -294 -359 -319 -359 -8 0 -20 15
-28 33 -29 70 -101 98 -193 74 -64 -17 -69 -25 92 151 90 99 128 133 150 138
17 3 53 23 80 44 58 45 58 45 161 24z m463 -23 l21 -29 -246 -269 c-135 -147
-249 -269 -253 -271 -3 -1 -15 12 -25 29 l-18 31 29 31 c16 18 58 64 93 102
36 39 134 146 218 238 85 92 155 167 157 167 2 0 13 -13 24 -29z m95 -131 l18
-31 -54 -57 c-29 -32 -138 -151 -243 -265 -104 -114 -195 -207 -201 -207 -6 0
-19 12 -28 26 -19 28 -5 46 219 284 45 47 120 129 169 183 49 53 91 97 95 97
4 0 15 -14 25 -30z m89 -123 c15 -23 10 -29 -179 -236 -106 -116 -218 -239
-248 -272 l-54 -60 -20 28 -20 28 107 115 c58 64 169 184 245 268 76 84 142
152 146 152 4 0 15 -10 23 -23z m-1086 -227 c158 -33 291 -60 295 -60 9 0 248
-325 248 -338 0 -6 -30 -42 -67 -81 l-68 -71 -120 166 c-66 91 -128 170 -137
175 -9 5 -138 34 -285 64 -147 30 -276 59 -286 63 -16 6 -10 16 43 75 34 37
68 67 75 67 7 0 143 -27 302 -60z m-477 -156 c0 -3 -69 -80 -152 -171 -140
-151 -153 -169 -153 -203 0 -24 -10 -51 -28 -77 -30 -44 -28 -70 7 -78 276
-64 302 -66 347 -19 33 35 80 66 96 63 30 -5 16 -19 235 223 79 86 151 157
161 157 26 1 21 -4 -213 -259 -113 -123 -218 -238 -235 -256 l-30 -33 -271 57
c-149 31 -273 61 -274 66 -6 15 473 535 493 535 9 1 17 -2 17 -5z m133 -57
c33 -71 124 -97 220 -63 l38 14 -43 -47 c-202 -221 -241 -259 -272 -265 -17
-3 -54 -24 -81 -47 -40 -33 -55 -40 -77 -35 -16 3 -57 11 -93 18 -63 11 -77
22 -55 44 6 6 14 29 18 52 6 35 29 66 157 207 83 90 155 163 160 162 6 -2 18
-20 28 -40z m498 -119 c10 -13 18 -26 19 -30 0 -7 -494 -548 -514 -562 -21
-14 -620 112 -633 133 -9 14 40 6 266 -41 152 -32 281 -58 288 -58 6 0 78 73
159 163 236 257 385 417 391 417 2 0 13 -10 24 -22z m109 -159 c0 -8 -369
-418 -480 -533 l-37 -38 -304 62 c-263 54 -347 77 -328 93 2 2 128 -22 279
-54 235 -49 278 -55 295 -44 11 7 135 139 275 293 l255 280 23 -24 c12 -14 22
-29 22 -35z m90 -119 c0 -3 -91 -104 -202 -225 -111 -121 -227 -249 -259 -283
l-58 -64 -303 63 c-168 34 -310 68 -318 76 -13 13 -12 14 10 9 114 -27 516
-106 535 -106 19 0 82 62 291 291 l267 291 18 -23 c10 -13 19 -26 19 -29z"/>
<path d="M1804 4786 c-3 -7 6 -25 19 -40 31 -33 85 -134 101 -189 10 -35 24
-51 81 -94 39 -29 75 -53 80 -53 6 0 34 24 63 53 l52 53 -55 74 c-50 67 -62
77 -113 95 -64 23 -163 77 -182 100 -16 19 -39 19 -46 1z m236 -207 c0 -14 -5
-19 -17 -17 -24 4 -26 38 -2 38 13 0 19 -7 19 -21z"/>
<path d="M2151 4446 c-92 -92 -98 -114 -42 -132 23 -7 77 -57 171 -155 l138
-144 81 80 c45 44 81 85 81 91 0 6 -63 70 -140 140 -112 103 -142 137 -151
167 -16 59 -41 50 -138 -47z"/>
<path d="M2517 4092 c-97 -97 -100 -106 -57 -147 17 -16 30 -35 30 -42 0 -8 7
-16 16 -20 16 -6 214 180 214 202 0 9 -102 95 -112 95 -2 0 -43 -39 -91 -88z"/>
<path d="M2630 3965 l-95 -95 143 -142 142 -143 95 95 c52 52 95 99 95 105 0
13 -262 275 -275 275 -6 0 -53 -43 -105 -95z"/>
<path d="M1070 4009 c-371 -9 -746 -18 -832 -18 -87 -1 -158 -4 -158 -8 0 -11
2429 -2197 2444 -2201 11 -3 827 894 825 907 0 3 -326 306 -724 674 l-724 667
-78 -1 c-43 -1 -382 -10 -753 -20z"/>
<path d="M5365 3359 l-726 -671 19 -22 c11 -11 192 -214 402 -451 211 -236
389 -431 395 -433 7 -2 536 432 1176 964 l1164 967 3 158 2 159 -854 0 -854 0
-727 -671z"/>
<path d="M3150 3770 c-36 -36 -8 -90 46 -90 55 0 438 -420 437 -478 0 -13 69
-117 113 -171 9 -11 44 35 44 58 -1 97 -222 372 -447 558 -57 47 -103 90 -103
97 0 40 -59 57 -90 26z"/>
<path d="M2927 3672 c-53 -53 -97 -102 -97 -108 0 -12 102 -114 114 -114 13 0
206 192 206 205 0 13 -102 115 -116 115 -5 0 -53 -44 -107 -98z"/>
<path d="M3065 3540 l-100 -101 230 -227 c348 -345 467 -421 540 -347 77 76
-2 200 -358 561 l-212 215 -100 -101z"/>
<path d="M2973 2169 c-180 -209 -329 -384 -331 -388 -1 -4 25 -12 57 -19 44
-9 70 -22 94 -45 l34 -32 6 -130 c8 -169 31 -248 87 -299 72 -65 76 -64 265
78 397 297 687 607 807 863 36 76 75 219 64 230 -20 21 -290 55 -487 62 -183
6 -186 6 -222 34 -19 15 -38 27 -41 27 -3 0 -153 -171 -333 -381z"/>
<path d="M4644 2504 c-21 -14 -61 -44 -87 -66 -60 -50 -106 -49 -237 6 -145
62 -196 47 -223 -62 -83 -348 -351 -675 -848 -1035 -163 -118 -213 -181 -213
-272 -1 -138 59 -161 207 -83 l66 35 -55 -66 c-127 -154 -133 -253 -19 -318
62 -35 142 -25 199 25 19 16 19 16 11 -3 -35 -85 -6 -223 58 -269 27 -20 157
-37 157 -21 0 5 -20 32 -45 62 -111 135 -43 306 122 307 59 0 61 -7 -20 84
-123 138 -58 317 115 317 32 0 58 1 58 3 0 1 -10 16 -22 33 -34 46 -37 141 -6
199 48 89 170 131 257 87 19 -9 36 -17 38 -17 1 0 3 22 3 48 0 104 77 188 181
198 92 9 114 -8 392 -311 136 -148 253 -272 259 -274 28 -9 101 127 128 242
13 53 20 118 20 182 l0 100 68 32 c79 37 131 95 109 122 -37 46 -628 741 -631
741 -2 0 -21 -12 -42 -26z"/>
<path d="M4290 1669 c-97 -39 -142 -172 -87 -260 12 -20 183 -213 380 -427
305 -333 365 -393 402 -408 155 -59 302 109 223 254 -41 74 -735 818 -779 836
-44 18 -101 20 -139 5z m141 -73 c23 -16 84 -88 98 -113 39 -76 -20 -168 -109
-168 -51 0 -53 2 -110 61 -79 84 -87 145 -29 204 41 40 106 47 150 16z"/>
<path d="M4336 1599 c-59 -16 -96 -81 -76 -134 15 -39 79 -114 111 -131 80
-41 172 29 155 119 -8 43 -91 135 -131 146 -16 4 -43 4 -59 0z"/>
<path d="M3965 1452 c-98 -46 -138 -158 -91 -249 21 -41 640 -724 670 -740
140 -74 306 70 256 221 -15 46 -626 733 -676 760 -51 27 -111 30 -159 8z m186
-112 c83 -87 90 -151 23 -210 -61 -53 -129 -38 -197 44 -69 84 -73 141 -11
195 61 54 114 46 185 -29z"/>
<path d="M3977 1369 c-68 -52 -55 -131 35 -215 47 -44 52 -46 96 -41 68 8 114
68 98 131 -7 29 -78 116 -108 133 -35 19 -92 16 -121 -8z"/>
<path d="M3765 1116 c-77 -34 -113 -121 -84 -203 10 -31 533 -620 580 -656
118 -87 288 48 235 186 -23 60 -562 660 -607 676 -42 14 -87 13 -124 -3z m133
-63 c48 -41 92 -106 92 -134 0 -65 -43 -111 -105 -111 -90 0 -182 131 -144
205 29 56 113 77 157 40z"/>
<path d="M3769 1031 c-52 -52 -30 -124 61 -198 29 -24 89 -16 121 16 48 49 35
106 -40 174 -53 48 -99 50 -142 8z"/>
<path d="M3660 707 c-72 -38 -103 -138 -66 -209 20 -39 314 -376 338 -389 97
-52 207 -6 238 99 21 67 -1 105 -174 306 -194 225 -233 248 -336 193z m167
-79 c79 -74 91 -138 33 -193 -51 -49 -101 -40 -167 28 -49 51 -53 59 -53 102
0 107 101 141 187 63z"/>
<path d="M3695 648 c-57 -33 -61 -94 -10 -161 51 -66 103 -85 156 -57 62 34
59 107 -10 180 -50 53 -90 64 -136 38z"/>
</g></g>
</svg>
